<?xml version="1.0" encoding="utf-8"?>
<!DOCTYPE svg PUBLIC "-//W3C//DTD SVG 1.1//EN" "http://www.w3.org/Graphics/SVG/1.1/DTD/svg11.dtd">
<svg xmlns="http://www.w3.org/2000/svg" xmlns:xlink="http://www.w3.org/1999/xlink" version="1.1" baseProfile="full" width="40.9636" height="40.9636" viewBox="0 0 40.96 40.96" enable-background="new 0 0 40.96 40.96" xml:space="preserve">
	<path fill="#4488CC" fill-opacity="1" stroke-width="0.2" stroke-linejoin="round" d="M 27.4121,3.07227C 32.3428,3.07227 36.9695,3.97625 40.9671,5.55857C 37.9102,4.62015 34.5683,4.10334 31.0671,4.10334C 16.4982,4.10334 4.68787,13.0517 4.68787,24.0902C 4.68787,29.3854 7.40568,34.1997 11.842,37.7759C 4.68744,34.3411 -5.81296e-007,28.6044 -5.81296e-007,22.1073C -5.81296e-007,11.5946 12.2728,3.07227 27.4121,3.07227 Z "/>
	<g>
		<path fill="#000000" fill-opacity="1" stroke-width="0.2" stroke-linejoin="round" d="M 13.7695,22.1447C 13.6751,22.6674 13.5882,23.2108 13.5088,23.7747C 13.4293,24.3387 13.3871,24.8446 13.3821,25.2923C 13.402,29.8543 15.7161,32.1133 20.3244,32.0694C 22.3908,32.0851 24.0755,31.3994 25.3784,30.0122C 26.6813,28.6251 27.6285,26.4422 28.2201,23.4637L 30.4845,12.192L 26.492,12.192L 24.2275,23.5237C 23.8725,25.3204 23.3833,26.6132 22.7601,27.402C 22.1369,28.1908 21.3647,28.5768 20.4436,28.5599C 19.3691,28.5555 18.6056,28.2645 18.1531,27.6868C 17.7006,27.1091 17.4808,26.271 17.4939,25.1724C 17.4988,24.458 17.5783,23.6985 17.7322,22.8941L 19.8477,12.192L 15.7657,12.192L 13.7695,22.1447 Z "/>
	</g>
</svg>
