<?xml version="1.0" encoding="utf-8"?>
<!DOCTYPE svg PUBLIC "-//W3C//DTD SVG 1.1//EN" "http://www.w3.org/Graphics/SVG/1.1/DTD/svg11.dtd">
<svg xmlns="http://www.w3.org/2000/svg" xmlns:xlink="http://www.w3.org/1999/xlink" version="1.1" baseProfile="full" width="163.854" height="87.0475" viewBox="0 0 163.85 87.05" enable-background="new 0 0 163.85 87.05" xml:space="preserve">
	<path fill="#4488CC" fill-opacity="1" stroke-width="0.2" stroke-linejoin="round" d="M 68.5303,0C 80.8571,0 92.4237,2.25996 102.418,6.21574C 94.7754,3.8697 86.4207,2.57768 77.6677,2.57768C 41.2456,2.57768 11.7197,24.9487 11.7197,52.5448C 11.7197,65.7828 18.5142,77.8185 29.6051,86.759C 11.7186,78.1721 -6.77463e-007,63.8302 -6.77463e-007,47.5877C -6.77463e-007,21.3057 30.6821,0 68.5303,0 Z "/>
	<g>
		<path fill="#000000" fill-opacity="1" stroke-width="0.2" stroke-linejoin="round" d="M 34.4237,47.6811C 34.1878,48.9879 33.9706,50.3463 33.7719,51.7562C 33.5733,53.1661 33.4678,54.4307 33.4554,55.5502C 33.505,66.9551 39.2902,72.6027 50.811,72.4928C 55.977,72.5321 60.1887,70.8178 63.4459,67.3499C 66.7032,63.882 69.0713,58.4249 70.5502,50.9786L 76.2112,22.7993L 66.2299,22.7993L 60.5688,51.1285C 59.6812,55.6205 58.4584,58.8524 56.9003,60.8244C 55.3423,62.7963 53.4118,63.7612 51.1089,63.7191C 48.4227,63.7081 46.514,62.9806 45.3827,61.5363C 44.2514,60.0921 43.7021,57.9968 43.7346,55.2504C 43.7471,53.4643 43.9457,51.5657 44.3306,49.5547L 49.6192,22.7993L 39.4144,22.7993L 34.4237,47.6811 Z "/>
		<path fill="#000000" fill-opacity="1" stroke-width="0.2" stroke-linejoin="round" d="M 78.3393,71.7072L 95.9928,71.7072C 101.842,71.7487 106.726,70.5116 110.646,67.9958C 114.566,65.48 116.602,61.4366 116.756,55.8656C 116.634,51.2268 113.898,48.3028 108.546,47.0938L 108.692,46.81C 111.818,45.8829 114.305,44.3156 116.153,42.1084C 118,39.9012 118.946,37.2957 118.99,34.2918C 118.917,30.3413 117.42,27.4447 114.499,25.6022C 111.578,23.7597 107.668,22.8486 102.771,22.869L 87.9481,22.869L 78.3393,71.7072 Z M 94.205,43.6171L 96.5886,30.8151L 100.909,30.8151C 106.135,30.9203 108.718,32.6851 108.656,36.1095C 108.679,38.3931 107.925,40.2074 106.393,41.5525C 104.861,42.8976 102.413,43.5858 99.0467,43.6171L 94.205,43.6171 Z M 89.9592,63.7612L 92.7898,50.2156L 99.1212,50.2156C 104.522,50.3001 107.203,52.3042 107.166,56.2278C 107.054,61.1655 103.479,63.6767 96.4398,63.7612L 89.9592,63.7612 Z "/>
		<path fill="#000000" fill-opacity="1" stroke-width="0.2" stroke-linejoin="round" d="M 125.042,52.101C 125.105,58.554 126.756,63.5536 129.996,67.0998C 133.236,70.646 137.686,72.4436 143.347,72.4928C 146.677,72.4123 149.588,71.7555 152.08,70.5224C 154.572,69.2894 156.553,67.9634 158.021,66.5445L 153.775,59.9713C 152.504,61.0785 151.172,61.9748 149.78,62.6603C 148.388,63.3458 146.964,63.6988 145.507,63.7191C 141.956,63.68 139.374,62.5776 137.76,60.4117C 136.146,58.2458 135.352,55.2507 135.376,51.4264C 135.477,45.8127 136.914,41.0189 139.687,37.0451C 142.461,33.0713 145.965,30.9946 150.199,30.8151C 152.807,30.8147 154.967,32.2384 156.68,35.0862L 163.682,29.7197C 162.29,27.3266 160.493,25.4676 158.291,24.1426C 156.089,22.8176 153.565,22.1453 150.721,22.1255C 143.296,22.3205 137.201,25.2083 132.434,30.7889C 127.668,36.3696 125.204,43.4736 125.042,52.101 Z "/>
	</g>
</svg>
